<svg width="227" height="40" viewBox="0 0 227 40" fill="none" xmlns="http://www.w3.org/2000/svg">
<path d="M12.793 25.0625L19.4922 2.5625H26.0156L16.1133 31H11.8164L12.793 25.0625ZM6.62109 2.5625L13.3008 25.0625L14.3164 31H9.98047L0.136719 2.5625H6.62109ZM34.2578 9.86719V31H28.6133V9.86719H34.2578ZM28.2617 4.35938C28.2617 3.53906 28.5482 2.86198 29.1211 2.32812C29.694 1.79427 30.4622 1.52734 31.4258 1.52734C32.3763 1.52734 33.138 1.79427 33.7109 2.32812C34.2969 2.86198 34.5898 3.53906 34.5898 4.35938C34.5898 5.17969 34.2969 5.85677 33.7109 6.39062C33.138 6.92448 32.3763 7.19141 31.4258 7.19141C30.4622 7.19141 29.694 6.92448 29.1211 6.39062C28.5482 5.85677 28.2617 5.17969 28.2617 4.35938ZM44.5312 0.980469V31H38.9062V0.980469H44.5312ZM57.8516 9.86719L48.6719 20.3359L43.75 25.3164L41.6992 21.2539L45.6055 16.293L51.0938 9.86719H57.8516ZM52.0117 31L45.7617 21.2344L49.6484 17.8359L58.4961 31H52.0117ZM66.2109 9.86719V31H60.5664V9.86719H66.2109ZM60.2148 4.35938C60.2148 3.53906 60.5013 2.86198 61.0742 2.32812C61.6471 1.79427 62.4154 1.52734 63.3789 1.52734C64.3294 1.52734 65.0911 1.79427 65.6641 2.32812C66.25 2.86198 66.543 3.53906 66.543 4.35938C66.543 5.17969 66.25 5.85677 65.6641 6.39062C65.0911 6.92448 64.3294 7.19141 63.3789 7.19141C62.4154 7.19141 61.6471 6.92448 61.0742 6.39062C60.5013 5.85677 60.2148 5.17969 60.2148 4.35938ZM76.3672 14.3789V31H70.7422V9.86719H76.0156L76.3672 14.3789ZM75.5469 19.6914H74.0234C74.0234 18.1289 74.2253 16.7227 74.6289 15.4727C75.0326 14.2096 75.599 13.1354 76.3281 12.25C77.0573 11.3516 77.9232 10.668 78.9258 10.1992C79.9414 9.71745 81.0742 9.47656 82.3242 9.47656C83.3138 9.47656 84.2188 9.61979 85.0391 9.90625C85.8594 10.1927 86.5625 10.6484 87.1484 11.2734C87.7474 11.8984 88.2031 12.7253 88.5156 13.7539C88.8411 14.7826 89.0039 16.0391 89.0039 17.5234V31H83.3398V17.5039C83.3398 16.5664 83.2096 15.8372 82.9492 15.3164C82.6888 14.7956 82.3047 14.431 81.7969 14.2227C81.3021 14.0013 80.6901 13.8906 79.9609 13.8906C79.2057 13.8906 78.5482 14.0404 77.9883 14.3398C77.4414 14.6393 76.9857 15.056 76.6211 15.5898C76.2695 16.1107 76.0026 16.7227 75.8203 17.4258C75.638 18.1289 75.5469 18.8841 75.5469 19.6914ZM106.66 9.86719H111.758V30.2969C111.758 32.224 111.328 33.8581 110.469 35.1992C109.622 36.5534 108.438 37.5755 106.914 38.2656C105.391 38.9688 103.62 39.3203 101.602 39.3203C100.716 39.3203 99.7786 39.2031 98.7891 38.9688C97.8125 38.7344 96.875 38.3698 95.9766 37.875C95.0911 37.3802 94.349 36.7552 93.75 36L96.2305 32.6797C96.8815 33.4349 97.6367 34.0208 98.4961 34.4375C99.3555 34.8672 100.306 35.082 101.348 35.082C102.363 35.082 103.223 34.8932 103.926 34.5156C104.629 34.151 105.169 33.6107 105.547 32.8945C105.924 32.1914 106.113 31.3385 106.113 30.3359V14.75L106.66 9.86719ZM92.4414 20.6875V20.2773C92.4414 18.6628 92.6367 17.1979 93.0273 15.8828C93.431 14.5547 93.9974 13.4154 94.7266 12.4648C95.4688 11.5143 96.3672 10.7786 97.4219 10.2578C98.4766 9.73698 99.668 9.47656 100.996 9.47656C102.402 9.47656 103.581 9.73698 104.531 10.2578C105.482 10.7786 106.263 11.5208 106.875 12.4844C107.487 13.4349 107.962 14.5612 108.301 15.8633C108.652 17.1523 108.926 18.5651 109.121 20.1016V21C108.926 22.4714 108.633 23.8385 108.242 25.1016C107.852 26.3646 107.337 27.4714 106.699 28.4219C106.061 29.3594 105.267 30.0885 104.316 30.6094C103.379 31.1302 102.259 31.3906 100.957 31.3906C99.6549 31.3906 98.4766 31.1237 97.4219 30.5898C96.3802 30.056 95.4883 29.3073 94.7461 28.3438C94.0039 27.3802 93.431 26.2474 93.0273 24.9453C92.6367 23.6432 92.4414 22.224 92.4414 20.6875ZM98.0664 20.2773V20.6875C98.0664 21.5599 98.151 22.3737 98.3203 23.1289C98.4896 23.8841 98.75 24.5547 99.1016 25.1406C99.4661 25.7135 99.9154 26.1628 100.449 26.4883C100.996 26.8008 101.641 26.957 102.383 26.957C103.411 26.957 104.251 26.7422 104.902 26.3125C105.553 25.8698 106.042 25.2643 106.367 24.4961C106.693 23.7279 106.882 22.8424 106.934 21.8398V19.2812C106.908 18.4609 106.797 17.7253 106.602 17.0742C106.406 16.4102 106.133 15.8438 105.781 15.375C105.43 14.9062 104.974 14.5417 104.414 14.2812C103.854 14.0208 103.19 13.8906 102.422 13.8906C101.68 13.8906 101.035 14.0599 100.488 14.3984C99.9544 14.724 99.5052 15.1732 99.1406 15.7461C98.7891 16.319 98.5221 16.9961 98.3398 17.7773C98.1576 18.5456 98.0664 19.3789 98.0664 20.2773ZM115.234 20.6484V20.2383C115.234 18.6888 115.456 17.263 115.898 15.9609C116.341 14.6458 116.986 13.5065 117.832 12.543C118.678 11.5794 119.72 10.8307 120.957 10.2969C122.194 9.75 123.613 9.47656 125.215 9.47656C126.816 9.47656 128.242 9.75 129.492 10.2969C130.742 10.8307 131.79 11.5794 132.637 12.543C133.496 13.5065 134.147 14.6458 134.59 15.9609C135.033 17.263 135.254 18.6888 135.254 20.2383V20.6484C135.254 22.1849 135.033 23.6107 134.59 24.9258C134.147 26.2279 133.496 27.3672 132.637 28.3438C131.79 29.3073 130.749 30.056 129.512 30.5898C128.275 31.1237 126.855 31.3906 125.254 31.3906C123.652 31.3906 122.227 31.1237 120.977 30.5898C119.74 30.056 118.691 29.3073 117.832 28.3438C116.986 27.3672 116.341 26.2279 115.898 24.9258C115.456 23.6107 115.234 22.1849 115.234 20.6484ZM120.859 20.2383V20.6484C120.859 21.5339 120.938 22.3607 121.094 23.1289C121.25 23.8971 121.497 24.5742 121.836 25.1602C122.188 25.7331 122.643 26.1823 123.203 26.5078C123.763 26.8333 124.447 26.9961 125.254 26.9961C126.035 26.9961 126.706 26.8333 127.266 26.5078C127.826 26.1823 128.275 25.7331 128.613 25.1602C128.952 24.5742 129.199 23.8971 129.355 23.1289C129.525 22.3607 129.609 21.5339 129.609 20.6484V20.2383C129.609 19.3789 129.525 18.5716 129.355 17.8164C129.199 17.0482 128.945 16.3711 128.594 15.7852C128.255 15.1862 127.806 14.7174 127.246 14.3789C126.686 14.0404 126.009 13.8711 125.215 13.8711C124.421 13.8711 123.743 14.0404 123.184 14.3789C122.637 14.7174 122.188 15.1862 121.836 15.7852C121.497 16.3711 121.25 17.0482 121.094 17.8164C120.938 18.5716 120.859 19.3789 120.859 20.2383ZM171.562 16.1367V27.4062C171.12 27.9401 170.436 28.5195 169.512 29.1445C168.587 29.7565 167.396 30.2839 165.938 30.7266C164.479 31.1693 162.715 31.3906 160.645 31.3906C158.809 31.3906 157.135 31.0911 155.625 30.4922C154.115 29.8802 152.812 28.9883 151.719 27.8164C150.638 26.6445 149.805 25.2122 149.219 23.5195C148.633 21.8138 148.34 19.8672 148.34 17.6797V15.9023C148.34 13.7148 148.62 11.7682 149.18 10.0625C149.753 8.35677 150.566 6.91797 151.621 5.74609C152.676 4.57422 153.932 3.68229 155.391 3.07031C156.849 2.45833 158.47 2.15234 160.254 2.15234C162.728 2.15234 164.759 2.55599 166.348 3.36328C167.936 4.15755 169.147 5.26432 169.98 6.68359C170.827 8.08984 171.348 9.70443 171.543 11.5273H165.859C165.716 10.5638 165.443 9.72396 165.039 9.00781C164.635 8.29167 164.056 7.73177 163.301 7.32812C162.559 6.92448 161.595 6.72266 160.41 6.72266C159.434 6.72266 158.561 6.92448 157.793 7.32812C157.038 7.71875 156.4 8.29818 155.879 9.06641C155.358 9.83464 154.961 10.7852 154.688 11.918C154.414 13.0508 154.277 14.3659 154.277 15.8633V17.6797C154.277 19.1641 154.421 20.4792 154.707 21.625C154.993 22.7578 155.417 23.7148 155.977 24.4961C156.549 25.2643 157.253 25.8438 158.086 26.2344C158.919 26.625 159.889 26.8203 160.996 26.8203C161.921 26.8203 162.689 26.7422 163.301 26.5859C163.926 26.4297 164.427 26.2409 164.805 26.0195C165.195 25.7852 165.495 25.5638 165.703 25.3555V20.3164H160.352V16.1367H171.562ZM182.207 28.6172L187.812 9.86719H193.848L185.352 34.1836C185.169 34.7174 184.922 35.2904 184.609 35.9023C184.31 36.5143 183.9 37.0938 183.379 37.6406C182.871 38.2005 182.227 38.6562 181.445 39.0078C180.677 39.3594 179.733 39.5352 178.613 39.5352C178.079 39.5352 177.643 39.5026 177.305 39.4375C176.966 39.3724 176.562 39.2812 176.094 39.1641V35.043C176.237 35.043 176.387 35.043 176.543 35.043C176.699 35.056 176.849 35.0625 176.992 35.0625C177.734 35.0625 178.34 34.9779 178.809 34.8086C179.277 34.6393 179.655 34.3789 179.941 34.0273C180.228 33.6888 180.456 33.2461 180.625 32.6992L182.207 28.6172ZM179.863 9.86719L184.453 25.1797L185.254 31.1367L181.426 31.5469L173.828 9.86719H179.863ZM201.719 14.2422V31H196.074V9.86719H201.367L201.719 14.2422ZM200.938 19.6914H199.375C199.375 18.2201 199.551 16.8659 199.902 15.6289C200.267 14.3789 200.794 13.2982 201.484 12.3867C202.188 11.4622 203.053 10.7461 204.082 10.2383C205.111 9.73047 206.302 9.47656 207.656 9.47656C208.594 9.47656 209.453 9.61979 210.234 9.90625C211.016 10.1797 211.686 10.6159 212.246 11.2148C212.819 11.8008 213.262 12.569 213.574 13.5195C213.887 14.457 214.043 15.5833 214.043 16.8984V31H208.418V17.5234C208.418 16.5599 208.288 15.8177 208.027 15.2969C207.767 14.776 207.396 14.4115 206.914 14.2031C206.445 13.9948 205.879 13.8906 205.215 13.8906C204.486 13.8906 203.848 14.0404 203.301 14.3398C202.767 14.6393 202.324 15.056 201.973 15.5898C201.621 16.1107 201.361 16.7227 201.191 17.4258C201.022 18.1289 200.938 18.8841 200.938 19.6914ZM213.516 19.0469L211.504 19.3008C211.504 17.9206 211.673 16.638 212.012 15.4531C212.363 14.2682 212.878 13.2266 213.555 12.3281C214.245 11.4297 215.098 10.7331 216.113 10.2383C217.129 9.73047 218.301 9.47656 219.629 9.47656C220.645 9.47656 221.569 9.6263 222.402 9.92578C223.236 10.2122 223.945 10.6745 224.531 11.3125C225.13 11.9375 225.586 12.7578 225.898 13.7734C226.224 14.7891 226.387 16.0326 226.387 17.5039V31H220.742V17.5039C220.742 16.5273 220.612 15.7852 220.352 15.2773C220.104 14.7565 219.74 14.3984 219.258 14.2031C218.789 13.9948 218.229 13.8906 217.578 13.8906C216.901 13.8906 216.309 14.0273 215.801 14.3008C215.293 14.5612 214.87 14.9258 214.531 15.3945C214.193 15.8633 213.939 16.4102 213.77 17.0352C213.6 17.6471 213.516 18.3177 213.516 19.0469Z" fill="white"/>
</svg>
